<svg id="图层_1" data-name="图层 1" xmlns="http://www.w3.org/2000/svg" viewBox="0 0 250 58.3">
  <defs>
    <style>
      .cls-1 {
        fill: #595757;
      }

      .cls-2 {
        fill: #00797f;
      }

      .cls-3 {
        fill: #ff6c0c;
      }
    </style>
  </defs>
  <title>首页</title>
  <g>
    <path class="cls-1" d="M211,15.1c8.3,0,12.7,5,11.1,13.7s-6.5,13.7-15.9,13.7-13.1-5.2-11.5-13.7S201.9,15.1,211,15.1ZM199.4,29.5c-1.3,7.5,1.4,11.8,7,11.7s9.3-4.5,10.9-12.6-1.4-11.7-6.6-11.7S200.8,21.2,199.4,29.5Z"/>
    <path class="cls-1" d="M87.6,3.8h12q12.9,0,11.1,8.6T97.3,23l11,19.5h-6.1c-1.4-2.4-11-19.1-11-19.1h-2L85.9,42.6H80.8Zm2,17.7a53.7,53.7,0,0,0,7.4-.4q7.2-1.8,8.5-8c.7-4.1-.9-6.6-4.9-7.3H92.4Z"/>
    <path class="cls-1" d="M152.4,16.8h-6.2a7.9,7.9,0,0,1,2.4,7.5q-1.7,8.4-13.5,8.9s-4.2,0-4.7,2.7,1.2,2.8,5.1,2.7H139c6.5,0,9.7,2.4,8.7,7.1-1.4,7.1-6.1,11.3-16.4,11.3-6.7,0-9.8-3.2-8.9-8.4s3.2-6,7.1-6.4v-.4c-2.3-.3-3.1-1.8-2.7-4.6s1.8-3.7,4.9-4.9q-5.1-2.4-4.1-8,1.6-9.3,13.1-9.1h7.8a24.8,24.8,0,0,0,4.3-.4ZM126,48.3c-.7,4.4,1.7,6.9,7,6.9s9.2-2.7,10.2-7.3c.4-2.2-.4-5.8-7.2-5.8S126.7,43.9,126,48.3Zm10.7-16.6c4,0,6.6-2.7,7.7-7.3s-.7-7.8-4.8-7.8-6.5,2.6-7.5,7.3S132.8,31.7,136.7,31.7Z"/>
    <path class="cls-1" d="M159.5,0h4.4l-3.6,20.6c2.7-3.7,6.1-5.5,10.1-5.5q9.3,0,7.4,11.1l-2.9,16.4h-4.7l2.7-15.1c1.3-6.5-.2-9.7-4.5-9.5s-8.1,3-9.1,9.1l-2.7,15.5H152Z"/>
    <path class="cls-1" d="M191.5,8l-1.2,7.1h6l-.4,2.2h-6l-2.7,15.3c-1,5.8-.4,8.6,2.7,8.4a7.1,7.1,0,0,0,2.5-.4l-.2,1.3a17.6,17.6,0,0,1-4.8.7q-7.2.4-5.2-8.4l3-16.8h-3.3l.4-2.2h3.3l.9-5.3Z"/>
    <path class="cls-1" d="M228.7,15.3l2.2.2,2.3-.2-.9,5.3q4.1-5.5,10.1-5.5,9.6-.2,7.4,11.1l-2.9,16.4H242l2.7-15.1c1.3-6.5-.2-9.7-4.5-9.5s-8.3,3.6-9.5,11.3l-2.3,13.3h-4.4Z"/>
    <path class="cls-1" d="M118.1,42.6h-4.7l4.8-27.2,2.4.2,2.3-.2Z"/>
    <path class="cls-2" d="M57.7.1A21.2,21.2,0,0,0,42.3,6.7h0l-.8-1.3a8.4,8.4,0,0,0-3-2.7,11,11,0,0,0-3.7-1.3l-3-.3H13.7L0,42.6H18l4.7-12.2,5.8,12.2H57.7A21.2,21.2,0,0,0,57.7.1ZM29.3,24.6,27,16.5,12.5,13.9,27,11.7l2.4-8.1,2.4,8.1,8.1,2.4-8.1,2.4ZM64.6,31H65A12.2,12.2,0,1,0,46.8,27h.2a1.3,1.3,0,1,1-1.4,1.1,1.1,1.1,0,0,1,.1-.4,13.5,13.5,0,1,1,19.9,4.5.9.9,0,0,1,0,.2A1.3,1.3,0,1,1,64.6,31Zm-7.1-.6a9,9,0,1,1,9-9A9,9,0,0,1,57.5,30.4Zm1.4,8.5a1.3,1.3,0,1,1-1.1-1.9,1.3,1.3,0,0,1,1.1.6A16.2,16.2,0,1,0,41.6,20.4a1.2,1.2,0,0,1,.6,1.1,1.3,1.3,0,1,1-1.9-1.1A17.5,17.5,0,1,1,58.9,38.9Z"/>
    <polygon class="cls-3" points="122.9 9.3 127.6 8 123.4 6.7 122.9 2.3 120.8 6.7 116.1 8 120.3 9.3 120.8 13.7 122.9 9.3"/>
    <path class="cls-1" d="M166.4,52.9v-.8a2.7,2.7,0,0,0,1.8-1h.5v-.7h6.1v.7h.4a2.9,2.9,0,0,0,1.9,1v.8a4,4,0,0,1-3.2-1.7h-1.1a8.8,8.8,0,0,0,4.5,2.5v.9l-1.6-.5v2.5q0,1.5-1.5,1.4h-6.4V54.2l-1.7.5v-.9a9.3,9.3,0,0,0,4.5-2.5h-1.1A3.7,3.7,0,0,1,166.4,52.9Zm0-1.9V49.1h4.2v-2h1.6v.6h4.2v.8h-4.2v.6h4.9V51h-1.5v-1h-7.8v1Zm2.8,3.1v.6h5v-.6Zm0,1.3v.7h5v-.7Zm0,1.9h4.4c.5,0,.7-.1.6-.5h-5Zm2.5-5.2L170,53.2h3.5Z"/>
    <path class="cls-1" d="M190.1,57.7V52.8h2.3l2.2-.3v1.1l-2.1.2h-1v2.4a15.7,15.7,0,0,0,3-.7v1A30.4,30.4,0,0,1,190.1,57.7Zm.7-5.6V47.6h8.8v2.9c.1,1.1-.5,1.7-1.7,1.6Zm1.5-3.6v.9h5.8v-.9Zm0,2.7h5.2a.6.6,0,0,0,.6-.6v-.3h-5.8Zm2.9,7.1V53h5.1v3q0,1.4-1.6,1.4h-1.1v-.9h.7q.6,0,.5-.6V53.9h-2.3v4.4Z"/>
    <path class="cls-1" d="M213.3,48.8v-.9h1.6v-.7h1.6v.7h4.2v-.7h1.5v.7h1.7v.9h-1.7v3.9H224v.9h-2.7a5.6,5.6,0,0,0,2.7,1.8v.9a9.8,9.8,0,0,1-2.5-1v.6h-2.3V57h4.1v.8h-9.6V57h4V55.9h-2.2v-.6a9.4,9.4,0,0,1-2.5,1v-.9a5.6,5.6,0,0,0,2.7-1.8H213v-.9h1.9V48.8Zm5.9,5.3V55h1.8a5.9,5.9,0,0,1-1.4-1.4h-2.3a5.9,5.9,0,0,1-1.4,1.4h1.8v-.9Zm-2.8-5.3v.8h4.2v-.8Zm0,1.6v.8h4.2v-.8Zm0,1.6v.8h4.2v-.8Z"/>
    <path class="cls-1" d="M236.8,58V47.6H247v8.6q.1,1.8-1.8,1.8Zm1.6-.9h6.3q.8.1.8-.9V48.7h-7.1Zm.5-5.4v-1h2.2V49.2h1.6v1.5h2.2v1h-2.2a4.4,4.4,0,0,0,2.3,3.8v1a5.7,5.7,0,0,1-3.1-2.5,5.4,5.4,0,0,1-3,2.5V55.4a4.4,4.4,0,0,0,2.2-3.8Z"/>
  </g>
</svg>
